<svg width="49" height="49" viewBox="0 0 49 49" fill="none" xmlns="http://www.w3.org/2000/svg">
<g clip-path="url(#clip0_1_269)">
<rect width="49" height="49" rx="24.5" fill="white"/>
<path d="M21.8187 0.0391817C19.0819 0.451588 15.82 1.37012 14.1517 2.21368L13.4206 2.58859L26.2615 15.4481C33.3286 22.534 39.271 28.6264 39.4959 29.0013C40.0957 29.9949 40.5269 31.9068 40.3957 32.9004C40.152 34.6812 39.7209 35.5811 38.5024 36.7995C37.5277 37.7556 37.1527 37.9993 36.0842 38.3366C34.472 38.824 33.7222 38.824 32.1101 38.3366L30.8166 37.943L23.1497 30.3135C18.9319 26.1332 15.1827 22.4028 14.8078 22.0467C13.8144 21.0718 13.4769 20.5283 13.4769 19.8347C13.4769 18.4288 14.6766 17.379 15.9889 17.6413C16.4387 17.7539 18.407 19.6097 24.6306 25.8145L32.71 33.8564H33.6097C34.3408 33.8564 34.6033 33.7627 35.0532 33.3128C35.5031 32.863 35.5968 32.6004 35.5968 31.8506V30.9508L22.6248 17.9788C11.0587 6.41273 9.61526 5.02554 9.29659 5.213C8.54676 5.60666 5.49122 8.86841 4.49769 10.3118L3.48541 11.774L20.3566 28.6452L37.2464 45.535L38.1463 44.8977C39.9083 43.7167 41.8017 42.0671 42.9451 40.7361C44.1449 39.3302 45.8132 36.8932 46.3943 35.6748L46.7318 34.9625L35.9154 24.1462L25.0992 13.3298V12.4488C25.0992 10.9304 26.3739 9.95566 27.8361 10.3118C28.1548 10.4056 31.9039 14.0047 38.2775 20.3595C43.7324 25.8333 48.2689 30.2573 48.3439 30.201C48.6625 29.9949 49 27.0143 49 24.2962C49 21.1468 48.6063 18.8411 47.6503 16.1604C46.5068 12.955 44.0324 9.09336 41.6704 6.84388C37.0402 2.45738 31.529 0.170401 25.1929 0.020436C23.6558 -0.0170554 22.1374 0.00169032 21.8187 0.0391817Z" fill="#ED1C24"/>
<path d="M1.12346 17.0978C0.111192 20.4908 -0.226232 24.1462 0.148683 27.2392C2.0045 42.2171 16.27 51.9649 30.8355 48.1782C31.8289 47.9345 32.7662 47.6534 32.8974 47.5783C33.0662 47.4846 28.2298 42.5169 17.3385 31.6257L1.51713 15.8044L1.12346 17.0978Z" fill="#ED1C24"/>
</g>
<defs>
<clipPath id="clip0_1_269">
<rect width="49" height="49" rx="24.5" fill="white"/>
</clipPath>
</defs>
</svg>
